<svg xmlns="http://www.w3.org/2000/svg" xmlns:xlink="http://www.w3.org/1999/xlink" width="500" zoomAndPan="magnify" viewBox="0 0 375 374.999991" height="500" preserveAspectRatio="xMidYMid meet" version="1.0"><defs><g/><clipPath id="599d527ccb"><path d="M 137.792969 137.792969 L 237.542969 137.792969 L 237.542969 237.542969 L 137.792969 237.542969 Z M 137.792969 137.792969 " clip-rule="nonzero"/></clipPath></defs><g clip-path="url(#599d527ccb)"><path fill="#054a91" d="M 187.4375 137.710938 C 179.769531 137.710938 172.433594 139.414062 165.609375 142.753906 C 164.089844 143.492188 163.457031 145.335938 164.191406 146.875 C 164.929688 148.390625 166.777344 149.027344 168.3125 148.289062 C 174.296875 145.355469 180.714844 143.878906 187.4375 143.878906 C 211.4375 143.878906 230.953125 163.414062 230.953125 187.394531 C 230.953125 211.398438 211.417969 230.910156 187.4375 230.910156 C 163.457031 230.910156 143.921875 211.378906 143.921875 187.394531 C 143.921875 176.695312 147.878906 166.425781 154.90625 158.496094 L 165.074219 197.707031 C 166.367188 202.667969 170.835938 206.128906 175.957031 206.128906 L 204.921875 206.128906 C 209.144531 206.128906 212.730469 203.097656 213.449219 198.9375 L 215.109375 189.324219 C 215.394531 187.476562 214.863281 185.59375 213.652344 184.179688 C 212.441406 182.761719 210.660156 181.945312 208.792969 181.945312 L 183.234375 181.945312 C 182.085938 181.945312 181.082031 181.164062 180.796875 180.039062 L 178.378906 170.21875 C 178.378906 170.179688 178.355469 170.097656 178.417969 170.015625 C 178.5 169.910156 178.582031 169.910156 178.601562 169.910156 L 214.699219 169.910156 C 216.398438 169.910156 217.773438 168.539062 217.773438 166.835938 C 217.773438 165.136719 216.398438 163.761719 214.699219 163.761719 L 178.625 163.761719 C 176.636719 163.761719 174.8125 164.664062 173.582031 166.222656 C 172.351562 167.78125 171.941406 169.769531 172.414062 171.695312 L 174.832031 181.511719 C 175.792969 185.386719 179.238281 188.09375 183.234375 188.09375 L 208.980469 188.175781 C 209.039062 188.257812 209.039062 188.339844 209.039062 188.339844 L 207.402344 197.890625 C 207.195312 199.097656 206.152344 199.980469 204.921875 199.980469 L 175.957031 199.980469 C 173.640625 199.980469 171.613281 198.402344 171.039062 196.167969 L 160.113281 154.007812 C 158.578125 147.9375 154.128906 143.121094 148.207031 141.132812 L 143.0625 139.414062 C 141.441406 138.859375 139.699219 139.742188 139.167969 141.339844 C 138.632812 142.9375 139.496094 144.699219 141.09375 145.234375 L 146.238281 146.957031 C 148.921875 147.855469 151.15625 149.660156 152.613281 151.976562 C 143.164062 161.28125 137.773438 174.050781 137.773438 187.375 C 137.773438 214.757812 160.054688 237.039062 187.4375 237.039062 C 214.820312 237.039062 237.121094 214.78125 237.121094 187.394531 C 237.121094 159.992188 214.839844 137.710938 187.4375 137.710938 Z M 187.4375 137.710938 " fill-opacity="1" fill-rule="nonzero"/></g><path fill="#054a91" d="M 181.574219 214.183594 C 181.574219 214.488281 181.546875 214.785156 181.488281 215.082031 C 181.425781 215.375 181.339844 215.664062 181.226562 215.941406 C 181.109375 216.222656 180.96875 216.484375 180.800781 216.734375 C 180.632812 216.988281 180.441406 217.21875 180.230469 217.433594 C 180.015625 217.644531 179.785156 217.835938 179.535156 218.003906 C 179.285156 218.171875 179.019531 218.3125 178.742188 218.425781 C 178.460938 218.542969 178.175781 218.628906 177.878906 218.6875 C 177.582031 218.746094 177.285156 218.777344 176.984375 218.777344 C 176.683594 218.777344 176.382812 218.746094 176.085938 218.6875 C 175.792969 218.628906 175.503906 218.542969 175.226562 218.425781 C 174.949219 218.3125 174.683594 218.171875 174.433594 218.003906 C 174.183594 217.835938 173.949219 217.644531 173.738281 217.433594 C 173.523438 217.21875 173.332031 216.988281 173.164062 216.734375 C 173 216.484375 172.855469 216.222656 172.742188 215.941406 C 172.625 215.664062 172.539062 215.375 172.480469 215.082031 C 172.421875 214.785156 172.390625 214.488281 172.390625 214.183594 C 172.390625 213.882812 172.421875 213.585938 172.480469 213.289062 C 172.539062 212.992188 172.625 212.707031 172.742188 212.429688 C 172.855469 212.148438 173 211.886719 173.164062 211.632812 C 173.332031 211.382812 173.523438 211.152344 173.738281 210.9375 C 173.949219 210.726562 174.183594 210.535156 174.433594 210.367188 C 174.683594 210.199219 174.949219 210.058594 175.226562 209.945312 C 175.503906 209.828125 175.792969 209.742188 176.085938 209.683594 C 176.382812 209.625 176.683594 209.59375 176.984375 209.59375 C 177.285156 209.59375 177.582031 209.625 177.878906 209.683594 C 178.175781 209.742188 178.460938 209.828125 178.742188 209.945312 C 179.019531 210.058594 179.285156 210.199219 179.535156 210.367188 C 179.785156 210.535156 180.015625 210.726562 180.230469 210.9375 C 180.441406 211.152344 180.632812 211.382812 180.800781 211.632812 C 180.96875 211.886719 181.109375 212.148438 181.226562 212.429688 C 181.339844 212.707031 181.425781 212.992188 181.488281 213.289062 C 181.546875 213.585938 181.574219 213.882812 181.574219 214.183594 Z M 181.574219 214.183594 " fill-opacity="1" fill-rule="nonzero"/><path fill="#054a91" d="M 205.25 214.183594 C 205.25 214.488281 205.21875 214.785156 205.160156 215.082031 C 205.101562 215.375 205.015625 215.664062 204.898438 215.941406 C 204.785156 216.222656 204.640625 216.484375 204.476562 216.734375 C 204.308594 216.988281 204.117188 217.21875 203.902344 217.433594 C 203.691406 217.644531 203.457031 217.835938 203.207031 218.003906 C 202.957031 218.171875 202.691406 218.3125 202.414062 218.425781 C 202.136719 218.542969 201.847656 218.628906 201.554688 218.6875 C 201.257812 218.746094 200.957031 218.777344 200.65625 218.777344 C 200.355469 218.777344 200.058594 218.746094 199.761719 218.6875 C 199.464844 218.628906 199.179688 218.542969 198.898438 218.425781 C 198.621094 218.3125 198.355469 218.171875 198.105469 218.003906 C 197.855469 217.835938 197.625 217.644531 197.410156 217.433594 C 197.199219 217.21875 197.007812 216.988281 196.839844 216.734375 C 196.671875 216.484375 196.53125 216.222656 196.414062 215.941406 C 196.300781 215.664062 196.214844 215.375 196.152344 215.082031 C 196.09375 214.785156 196.066406 214.488281 196.066406 214.183594 C 196.066406 213.882812 196.09375 213.585938 196.152344 213.289062 C 196.214844 212.992188 196.300781 212.707031 196.414062 212.429688 C 196.53125 212.148438 196.671875 211.886719 196.839844 211.632812 C 197.007812 211.382812 197.199219 211.152344 197.410156 210.9375 C 197.625 210.726562 197.855469 210.535156 198.105469 210.367188 C 198.355469 210.199219 198.621094 210.058594 198.898438 209.945312 C 199.179688 209.828125 199.464844 209.742188 199.761719 209.683594 C 200.058594 209.625 200.355469 209.59375 200.65625 209.59375 C 200.957031 209.59375 201.257812 209.625 201.554688 209.683594 C 201.847656 209.742188 202.136719 209.828125 202.414062 209.945312 C 202.691406 210.058594 202.957031 210.199219 203.207031 210.367188 C 203.457031 210.535156 203.691406 210.726562 203.902344 210.9375 C 204.117188 211.152344 204.308594 211.382812 204.476562 211.632812 C 204.640625 211.886719 204.785156 212.148438 204.898438 212.429688 C 205.015625 212.707031 205.101562 212.992188 205.160156 213.289062 C 205.21875 213.585938 205.25 213.882812 205.25 214.183594 Z M 205.25 214.183594 " fill-opacity="1" fill-rule="nonzero"/><g fill="#000000" fill-opacity="1"><g transform="translate(142.054684, 257.12424)"><g><path d="M 5.0625 0.21875 C 4.15625 0.21875 3.273438 0.109375 2.421875 -0.109375 C 1.566406 -0.335938 0.875 -0.640625 0.34375 -1.015625 L 1.375 -3.34375 C 1.875 -3.007812 2.453125 -2.738281 3.109375 -2.53125 C 3.773438 -2.332031 4.429688 -2.234375 5.078125 -2.234375 C 6.285156 -2.234375 6.890625 -2.539062 6.890625 -3.15625 C 6.890625 -3.46875 6.71875 -3.703125 6.375 -3.859375 C 6.03125 -4.015625 5.472656 -4.179688 4.703125 -4.359375 C 3.859375 -4.535156 3.15625 -4.726562 2.59375 -4.9375 C 2.03125 -5.144531 1.546875 -5.476562 1.140625 -5.9375 C 0.734375 -6.394531 0.53125 -7.015625 0.53125 -7.796875 C 0.53125 -8.472656 0.710938 -9.085938 1.078125 -9.640625 C 1.453125 -10.191406 2.007812 -10.625 2.75 -10.9375 C 3.5 -11.257812 4.410156 -11.421875 5.484375 -11.421875 C 6.222656 -11.421875 6.945312 -11.335938 7.65625 -11.171875 C 8.375 -11.003906 9.003906 -10.765625 9.546875 -10.453125 L 8.578125 -8.09375 C 7.503906 -8.664062 6.46875 -8.953125 5.46875 -8.953125 C 4.84375 -8.953125 4.382812 -8.859375 4.09375 -8.671875 C 3.800781 -8.492188 3.65625 -8.253906 3.65625 -7.953125 C 3.65625 -7.648438 3.828125 -7.425781 4.171875 -7.28125 C 4.515625 -7.132812 5.066406 -6.976562 5.828125 -6.8125 C 6.679688 -6.632812 7.382812 -6.441406 7.9375 -6.234375 C 8.5 -6.023438 8.984375 -5.691406 9.390625 -5.234375 C 9.804688 -4.785156 10.015625 -4.171875 10.015625 -3.390625 C 10.015625 -2.722656 9.828125 -2.113281 9.453125 -1.5625 C 9.078125 -1.019531 8.515625 -0.585938 7.765625 -0.265625 C 7.023438 0.0546875 6.125 0.21875 5.0625 0.21875 Z M 5.0625 0.21875 "/></g></g></g><g fill="#000000" fill-opacity="1"><g transform="translate(152.404193, 257.12424)"><g><path d="M 11.78125 -11.203125 L 11.78125 0 L 8.609375 0 L 8.609375 -4.375 L 4.28125 -4.375 L 4.28125 0 L 1.125 0 L 1.125 -11.203125 L 4.28125 -11.203125 L 4.28125 -6.984375 L 8.609375 -6.984375 L 8.609375 -11.203125 Z M 11.78125 -11.203125 "/></g></g></g><g fill="#000000" fill-opacity="1"><g transform="translate(165.297094, 257.12424)"><g><path d="M 6.765625 0.21875 C 5.578125 0.21875 4.507812 -0.03125 3.5625 -0.53125 C 2.625 -1.03125 1.882812 -1.722656 1.34375 -2.609375 C 0.8125 -3.492188 0.546875 -4.488281 0.546875 -5.59375 C 0.546875 -6.707031 0.8125 -7.707031 1.34375 -8.59375 C 1.882812 -9.476562 2.625 -10.171875 3.5625 -10.671875 C 4.507812 -11.171875 5.578125 -11.421875 6.765625 -11.421875 C 7.953125 -11.421875 9.015625 -11.171875 9.953125 -10.671875 C 10.898438 -10.171875 11.640625 -9.476562 12.171875 -8.59375 C 12.710938 -7.707031 12.984375 -6.707031 12.984375 -5.59375 C 12.984375 -4.488281 12.710938 -3.492188 12.171875 -2.609375 C 11.640625 -1.722656 10.898438 -1.03125 9.953125 -0.53125 C 9.015625 -0.03125 7.953125 0.21875 6.765625 0.21875 Z M 6.765625 -2.40625 C 7.328125 -2.40625 7.835938 -2.535156 8.296875 -2.796875 C 8.753906 -3.066406 9.117188 -3.441406 9.390625 -3.921875 C 9.660156 -4.410156 9.796875 -4.96875 9.796875 -5.59375 C 9.796875 -6.226562 9.660156 -6.785156 9.390625 -7.265625 C 9.117188 -7.753906 8.753906 -8.128906 8.296875 -8.390625 C 7.835938 -8.660156 7.328125 -8.796875 6.765625 -8.796875 C 6.203125 -8.796875 5.691406 -8.660156 5.234375 -8.390625 C 4.773438 -8.128906 4.410156 -7.753906 4.140625 -7.265625 C 3.878906 -6.785156 3.75 -6.226562 3.75 -5.59375 C 3.75 -4.96875 3.878906 -4.410156 4.140625 -3.921875 C 4.410156 -3.441406 4.773438 -3.066406 5.234375 -2.796875 C 5.691406 -2.535156 6.203125 -2.40625 6.765625 -2.40625 Z M 6.765625 -2.40625 "/></g></g></g><g fill="#000000" fill-opacity="1"><g transform="translate(178.829847, 257.12424)"><g><path d="M 6.234375 -11.203125 C 7.253906 -11.203125 8.132812 -11.03125 8.875 -10.6875 C 9.625 -10.351562 10.203125 -9.875 10.609375 -9.25 C 11.015625 -8.625 11.21875 -7.894531 11.21875 -7.0625 C 11.21875 -6.21875 11.015625 -5.484375 10.609375 -4.859375 C 10.203125 -4.242188 9.625 -3.765625 8.875 -3.421875 C 8.132812 -3.085938 7.253906 -2.921875 6.234375 -2.921875 L 4.28125 -2.921875 L 4.28125 0 L 1.125 0 L 1.125 -11.203125 Z M 6.046875 -5.421875 C 6.703125 -5.421875 7.191406 -5.5625 7.515625 -5.84375 C 7.847656 -6.125 8.015625 -6.53125 8.015625 -7.0625 C 8.015625 -7.582031 7.847656 -7.984375 7.515625 -8.265625 C 7.191406 -8.554688 6.703125 -8.703125 6.046875 -8.703125 L 4.28125 -8.703125 L 4.28125 -5.421875 Z M 6.046875 -5.421875 "/></g></g></g><g fill="#054a91" fill-opacity="1"><g transform="translate(190.806746, 257.12424)"><g><path d="M 4.578125 -8.640625 C 5.835938 -8.640625 6.800781 -8.335938 7.46875 -7.734375 C 8.132812 -7.128906 8.46875 -6.222656 8.46875 -5.015625 L 8.46875 0 L 6.578125 0 L 6.578125 -1.046875 C 6.328125 -0.671875 5.972656 -0.382812 5.515625 -0.1875 C 5.066406 0.0078125 4.523438 0.109375 3.890625 0.109375 C 3.242188 0.109375 2.679688 0 2.203125 -0.21875 C 1.722656 -0.4375 1.351562 -0.738281 1.09375 -1.125 C 0.832031 -1.519531 0.703125 -1.960938 0.703125 -2.453125 C 0.703125 -3.210938 0.988281 -3.820312 1.5625 -4.28125 C 2.132812 -4.75 3.03125 -4.984375 4.25 -4.984375 L 6.46875 -4.984375 L 6.46875 -5.125 C 6.46875 -5.71875 6.285156 -6.171875 5.921875 -6.484375 C 5.566406 -6.804688 5.039062 -6.96875 4.34375 -6.96875 C 3.851562 -6.96875 3.375 -6.894531 2.90625 -6.75 C 2.445312 -6.601562 2.0625 -6.394531 1.75 -6.125 L 0.953125 -7.578125 C 1.398438 -7.921875 1.9375 -8.179688 2.5625 -8.359375 C 3.195312 -8.546875 3.867188 -8.640625 4.578125 -8.640625 Z M 4.296875 -1.34375 C 4.804688 -1.34375 5.253906 -1.457031 5.640625 -1.6875 C 6.023438 -1.914062 6.300781 -2.242188 6.46875 -2.671875 L 6.46875 -3.65625 L 4.40625 -3.65625 C 3.25 -3.65625 2.671875 -3.28125 2.671875 -2.53125 C 2.671875 -2.164062 2.8125 -1.875 3.09375 -1.65625 C 3.382812 -1.445312 3.785156 -1.34375 4.296875 -1.34375 Z M 4.296875 -1.34375 "/></g></g></g><g fill="#054a91" fill-opacity="1"><g transform="translate(200.516416, 257.12424)"><g><path d="M 1.3125 -8.546875 L 3.3125 -8.546875 L 3.3125 0 L 1.3125 0 Z M 2.328125 -9.953125 C 1.960938 -9.953125 1.65625 -10.066406 1.40625 -10.296875 C 1.164062 -10.523438 1.046875 -10.8125 1.046875 -11.15625 C 1.046875 -11.488281 1.164062 -11.769531 1.40625 -12 C 1.65625 -12.238281 1.960938 -12.359375 2.328125 -12.359375 C 2.691406 -12.359375 2.992188 -12.25 3.234375 -12.03125 C 3.484375 -11.8125 3.609375 -11.535156 3.609375 -11.203125 C 3.609375 -10.847656 3.488281 -10.550781 3.25 -10.3125 C 3.007812 -10.070312 2.703125 -9.953125 2.328125 -9.953125 Z M 2.328125 -9.953125 "/></g></g></g><g fill="#054a91" fill-opacity="1"><g transform="translate(205.139302, 257.12424)"><g><path d="M 3.953125 0.109375 C 3.253906 0.109375 2.570312 0.0195312 1.90625 -0.15625 C 1.25 -0.34375 0.726562 -0.570312 0.34375 -0.84375 L 1.109375 -2.375 C 1.492188 -2.113281 1.953125 -1.90625 2.484375 -1.75 C 3.023438 -1.59375 3.554688 -1.515625 4.078125 -1.515625 C 5.273438 -1.515625 5.875 -1.832031 5.875 -2.46875 C 5.875 -2.757812 5.71875 -2.960938 5.40625 -3.078125 C 5.101562 -3.203125 4.617188 -3.316406 3.953125 -3.421875 C 3.242188 -3.523438 2.664062 -3.644531 2.21875 -3.78125 C 1.78125 -3.925781 1.398438 -4.171875 1.078125 -4.515625 C 0.753906 -4.867188 0.59375 -5.351562 0.59375 -5.96875 C 0.59375 -6.78125 0.929688 -7.425781 1.609375 -7.90625 C 2.285156 -8.394531 3.203125 -8.640625 4.359375 -8.640625 C 4.941406 -8.640625 5.523438 -8.570312 6.109375 -8.4375 C 6.691406 -8.300781 7.171875 -8.125 7.546875 -7.90625 L 6.78125 -6.390625 C 6.0625 -6.816406 5.25 -7.03125 4.34375 -7.03125 C 3.75 -7.03125 3.300781 -6.941406 3 -6.765625 C 2.695312 -6.585938 2.546875 -6.351562 2.546875 -6.0625 C 2.546875 -5.738281 2.707031 -5.507812 3.03125 -5.375 C 3.351562 -5.25 3.859375 -5.128906 4.546875 -5.015625 C 5.222656 -4.898438 5.78125 -4.773438 6.21875 -4.640625 C 6.65625 -4.503906 7.03125 -4.269531 7.34375 -3.9375 C 7.664062 -3.601562 7.828125 -3.132812 7.828125 -2.53125 C 7.828125 -1.726562 7.476562 -1.085938 6.78125 -0.609375 C 6.09375 -0.128906 5.148438 0.109375 3.953125 0.109375 Z M 3.953125 0.109375 "/></g></g></g><g fill="#054a91" fill-opacity="1"><g transform="translate(213.37732, 257.12424)"><g><path d="M 1.3125 -11.875 L 3.3125 -11.875 L 3.3125 0 L 1.3125 0 Z M 1.3125 -11.875 "/></g></g></g><g fill="#054a91" fill-opacity="1"><g transform="translate(218.000206, 257.12424)"><g><path d="M 9.34375 -4.21875 C 9.34375 -4.082031 9.332031 -3.882812 9.3125 -3.625 L 2.609375 -3.625 C 2.722656 -3 3.023438 -2.5 3.515625 -2.125 C 4.015625 -1.757812 4.632812 -1.578125 5.375 -1.578125 C 6.3125 -1.578125 7.085938 -1.890625 7.703125 -2.515625 L 8.765625 -1.28125 C 8.378906 -0.820312 7.894531 -0.472656 7.3125 -0.234375 C 6.726562 -0.00390625 6.066406 0.109375 5.328125 0.109375 C 4.390625 0.109375 3.5625 -0.078125 2.84375 -0.453125 C 2.132812 -0.828125 1.582031 -1.347656 1.1875 -2.015625 C 0.800781 -2.679688 0.609375 -3.429688 0.609375 -4.265625 C 0.609375 -5.097656 0.796875 -5.847656 1.171875 -6.515625 C 1.554688 -7.179688 2.082031 -7.703125 2.75 -8.078125 C 3.425781 -8.453125 4.1875 -8.640625 5.03125 -8.640625 C 5.851562 -8.640625 6.59375 -8.453125 7.25 -8.078125 C 7.90625 -7.710938 8.414062 -7.195312 8.78125 -6.53125 C 9.15625 -5.863281 9.34375 -5.09375 9.34375 -4.21875 Z M 5.03125 -7.046875 C 4.382812 -7.046875 3.835938 -6.851562 3.390625 -6.46875 C 2.953125 -6.09375 2.6875 -5.585938 2.59375 -4.953125 L 7.4375 -4.953125 C 7.351562 -5.578125 7.09375 -6.082031 6.65625 -6.46875 C 6.21875 -6.851562 5.675781 -7.046875 5.03125 -7.046875 Z M 5.03125 -7.046875 "/></g></g></g><g fill="#054a91" fill-opacity="1"><g transform="translate(227.949813, 257.12424)"><g><path d="M 9.3125 -8.546875 L 5.3125 0.6875 C 4.9375 1.613281 4.484375 2.265625 3.953125 2.640625 C 3.421875 3.023438 2.773438 3.21875 2.015625 3.21875 C 1.585938 3.21875 1.164062 3.144531 0.75 3 C 0.332031 2.863281 -0.00390625 2.675781 -0.265625 2.4375 L 0.53125 0.953125 C 0.71875 1.140625 0.941406 1.285156 1.203125 1.390625 C 1.460938 1.492188 1.726562 1.546875 2 1.546875 C 2.351562 1.546875 2.644531 1.457031 2.875 1.28125 C 3.101562 1.101562 3.3125 0.800781 3.5 0.375 L 3.640625 0.03125 L -0.078125 -8.546875 L 2 -8.546875 L 4.6875 -2.21875 L 7.390625 -8.546875 Z M 9.3125 -8.546875 "/></g></g></g></svg>