<svg width="45" height="52" viewBox="0 0 45 52" fill="none" xmlns="http://www.w3.org/2000/svg">
<path d="M34.2023 31.4287L34.1714 31.3884C32.9075 32.3783 31.3897 32.9021 29.7793 32.9021C25.8492 32.9021 22.6511 29.7041 22.6511 25.7726C22.6511 21.8425 25.8492 18.6444 29.7806 18.6444C30.6577 18.6444 31.512 18.8016 32.3192 19.1092C32.972 19.3577 33.5777 19.6948 34.1217 20.1125L34.1553 20.0695L35.9336 21.8519L45 12.8286L44.1149 11.9018C40.3285 7.94212 35.2365 5.75948 29.7779 5.75948C27.9217 5.75948 26.0909 6.01334 24.3233 6.513L17.8265 0L17.0179 0.333104C14.5411 1.35525 12.2295 2.73468 10.1436 4.43378C8.07644 6.11945 6.26586 8.09122 4.7642 10.294C1.64672 14.8661 0 20.2186 0 25.7726C0 31.3333 1.65075 36.6912 4.77629 41.2687C6.28197 43.4728 8.09525 45.4459 10.1704 47.1316C12.2591 48.8307 14.5787 50.2088 17.0595 51.2282L17.8681 51.56L24.3529 45.0403C26.1124 45.5346 27.9338 45.7844 29.7793 45.7844C32.5032 45.7844 35.16 45.2256 37.6704 44.1243C40.0639 43.0752 42.2156 41.5857 44.0692 39.6958L44.9731 38.7731L35.9336 29.6879L34.2023 31.4287ZM29.7806 16.028C27.1789 16.028 24.7303 17.0421 22.8902 18.8822C21.0487 20.7223 20.036 23.1709 20.036 25.7726C20.036 28.3757 21.0501 30.8229 22.8902 32.6644C24.7303 34.5045 27.1776 35.5186 29.7806 35.5186C29.9015 35.5186 30.0237 35.5159 30.1446 35.5105L23.6356 42.0531C16.8728 39.5078 12.3826 33.0633 12.3826 25.7726C12.3826 18.4954 16.8634 12.0535 23.6115 9.50154L30.1312 16.036C30.0143 16.0307 29.8975 16.028 29.7806 16.028ZM29.7793 8.37597C34.0895 8.37597 38.1351 9.94344 41.3076 12.8151L35.9417 18.1542L26.4939 8.68489C27.5711 8.47939 28.6698 8.37597 29.7793 8.37597ZM17.257 48.4654C8.33433 44.4359 2.61648 35.6207 2.61648 25.7726C2.61648 15.9407 8.31955 7.13354 17.2207 3.09599L21.5269 7.41157L21.6115 7.49619C20.3476 8.06167 19.1455 8.75877 18.0172 9.57944C16.349 10.7937 14.8809 12.2523 13.6573 13.9138C11.112 17.3684 9.76748 21.4678 9.76748 25.7726C9.76748 30.0801 11.1147 34.1848 13.6653 37.6421C14.893 39.305 16.3624 40.7637 18.0347 41.9779C19.1656 42.7986 20.3718 43.4943 21.6397 44.0584L17.257 48.4654ZM41.266 38.7556C38.0464 41.6112 34.0143 43.1693 29.7793 43.1693C28.6792 43.1693 27.5872 43.0672 26.5181 42.8644L35.9336 33.3978L41.266 38.7556Z" fill="#054A91"/>
</svg>
