<svg width="170" height="52" viewBox="0 0 170 52" fill="none" xmlns="http://www.w3.org/2000/svg">
<path d="M34.2023 31.4287L34.1714 31.3884C32.9075 32.3783 31.3897 32.9021 29.7793 32.9021C25.8492 32.9021 22.6511 29.7041 22.6511 25.7726C22.6511 21.8425 25.8492 18.6444 29.7806 18.6444C30.6577 18.6444 31.512 18.8016 32.3192 19.1092C32.972 19.3577 33.5777 19.6948 34.1217 20.1125L34.1553 20.0695L35.9336 21.8519L45 12.8286L44.1149 11.9018C40.3285 7.94212 35.2365 5.75948 29.7779 5.75948C27.9217 5.75948 26.0909 6.01334 24.3233 6.513L17.8265 0L17.0179 0.333104C14.5411 1.35525 12.2295 2.73468 10.1436 4.43378C8.07644 6.11945 6.26586 8.09122 4.7642 10.294C1.64672 14.8661 0 20.2186 0 25.7726C0 31.3333 1.65075 36.6912 4.77629 41.2687C6.28197 43.4728 8.09525 45.4459 10.1704 47.1316C12.2591 48.8307 14.5787 50.2088 17.0595 51.2282L17.8681 51.56L24.3529 45.0403C26.1124 45.5346 27.9338 45.7844 29.7793 45.7844C32.5032 45.7844 35.16 45.2256 37.6704 44.1243C40.0639 43.0752 42.2156 41.5857 44.0692 39.6958L44.9731 38.7731L35.9336 29.6879L34.2023 31.4287ZM29.7806 16.028C27.1789 16.028 24.7303 17.0421 22.8902 18.8822C21.0487 20.7223 20.036 23.1709 20.036 25.7726C20.036 28.3757 21.0501 30.8229 22.8902 32.6644C24.7303 34.5045 27.1776 35.5186 29.7806 35.5186C29.9015 35.5186 30.0237 35.5159 30.1446 35.5105L23.6356 42.0531C16.8728 39.5078 12.3826 33.0633 12.3826 25.7726C12.3826 18.4954 16.8634 12.0535 23.6115 9.50154L30.1312 16.036C30.0143 16.0307 29.8975 16.028 29.7806 16.028ZM29.7793 8.37597C34.0895 8.37597 38.1351 9.94344 41.3076 12.8151L35.9417 18.1542L26.4939 8.68489C27.5711 8.47939 28.6698 8.37597 29.7793 8.37597ZM17.257 48.4654C8.33433 44.4359 2.61648 35.6207 2.61648 25.7726C2.61648 15.9407 8.31955 7.13354 17.2207 3.09599L21.5269 7.41157L21.6115 7.49619C20.3476 8.06167 19.1455 8.75877 18.0172 9.57944C16.349 10.7937 14.8809 12.2523 13.6573 13.9138C11.112 17.3684 9.76748 21.4678 9.76748 25.7726C9.76748 30.0801 11.1147 34.1848 13.6653 37.6421C14.893 39.305 16.3624 40.7637 18.0347 41.9779C19.1656 42.7986 20.3718 43.4943 21.6397 44.0584L17.257 48.4654ZM41.266 38.7556C38.0464 41.6112 34.0143 43.1693 29.7793 43.1693C28.6792 43.1693 27.5872 43.0672 26.5181 42.8644L35.9336 33.3978L41.266 38.7556Z" fill="#054A91"/>
<path d="M61.04 31.28C59.68 31.28 58.44 30.9667 57.32 30.34C56.2133 29.7133 55.34 28.8467 54.7 27.74C54.06 26.6333 53.74 25.3867 53.74 24C53.74 22.6133 54.06 21.3667 54.7 20.26C55.3533 19.1533 56.2333 18.2867 57.34 17.66C58.46 17.0333 59.7 16.72 61.06 16.72C61.9 16.72 62.6333 16.8133 63.26 17C63.9 17.1867 64.52 17.4667 65.12 17.84L65.28 20.28H65C64.4 19.7867 63.7867 19.4133 63.16 19.16C62.5333 18.8933 61.84 18.76 61.08 18.76C60.1067 18.76 59.24 18.98 58.48 19.42C57.72 19.8467 57.1267 20.46 56.7 21.26C56.2733 22.0467 56.06 22.96 56.06 24C56.06 25.0267 56.2733 25.94 56.7 26.74C57.1267 27.5267 57.72 28.14 58.48 28.58C59.2533 29.02 60.12 29.24 61.08 29.24C61.8267 29.24 62.5133 29.1133 63.14 28.86C63.7667 28.5933 64.3867 28.2067 65 27.7H65.28L65.12 30.14C64.52 30.5133 63.8933 30.8 63.24 31C62.6 31.1867 61.8667 31.28 61.04 31.28ZM71.6683 31.28C70.7883 31.28 69.9683 31.06 69.2083 30.62C68.4483 30.1667 67.8349 29.54 67.3683 28.74C66.9149 27.94 66.6883 27.0467 66.6883 26.06C66.6883 25.1133 66.9083 24.24 67.3483 23.44C67.8016 22.64 68.4149 22.0067 69.1883 21.54C69.9616 21.0733 70.8149 20.84 71.7483 20.84C72.4416 20.84 73.0683 20.9667 73.6283 21.22C74.1883 21.4733 74.6349 21.7933 74.9683 22.18V21.12H77.0883V31H74.9683V29.92C74.1149 30.8267 73.0149 31.28 71.6683 31.28ZM71.9483 29.34C72.5749 29.34 73.1216 29.1933 73.5883 28.9C74.0683 28.6067 74.4349 28.2133 74.6883 27.72C74.9416 27.2133 75.0683 26.66 75.0683 26.06C75.0683 25.46 74.9416 24.9133 74.6883 24.42C74.4349 23.9133 74.0683 23.5133 73.5883 23.22C73.1216 22.9267 72.5749 22.78 71.9483 22.78C71.3216 22.78 70.7683 22.9267 70.2883 23.22C69.8083 23.5133 69.4416 23.9133 69.1883 24.42C68.9349 24.9133 68.8083 25.46 68.8083 26.06C68.8083 26.66 68.9349 27.2133 69.1883 27.72C69.4549 28.2133 69.8216 28.6067 70.2883 28.9C70.7683 29.1933 71.3216 29.34 71.9483 29.34ZM79.5325 21.12H81.6525V22.34C81.9592 21.8867 82.3792 21.5267 82.9125 21.26C83.4592 20.98 84.0325 20.84 84.6325 20.84C85.9658 20.84 86.8725 21.34 87.3525 22.34C87.7258 21.8733 88.1925 21.5067 88.7525 21.24C89.3125 20.9733 89.9192 20.84 90.5725 20.84C91.5458 20.84 92.2992 21.12 92.8325 21.68C93.3658 22.24 93.6325 23.0067 93.6325 23.98V31H91.5125V24.62C91.5125 24.02 91.3592 23.5667 91.0525 23.26C90.7592 22.94 90.3392 22.78 89.7925 22.78C89.2058 22.78 88.7058 23.0067 88.2925 23.46C87.8792 23.9 87.6725 24.4733 87.6725 25.18V31H85.5525V24.62C85.5525 24.0067 85.3925 23.5467 85.0725 23.24C84.7658 22.9333 84.3458 22.78 83.8125 22.78C83.1858 22.78 82.6658 23.0267 82.2525 23.52C81.8525 24.0133 81.6525 24.6667 81.6525 25.48V31H79.5325V21.12ZM95.9583 21.12H98.0783V22.38C98.4783 21.9133 98.9649 21.54 99.5383 21.26C100.125 20.98 100.778 20.84 101.498 20.84C102.432 20.84 103.272 21.06 104.018 21.5C104.778 21.94 105.372 22.56 105.798 23.36C106.238 24.1467 106.458 25.0467 106.458 26.06C106.458 27.1 106.238 28.02 105.798 28.82C105.358 29.6067 104.758 30.2133 103.998 30.64C103.252 31.0667 102.425 31.28 101.518 31.28C100.785 31.28 100.118 31.1467 99.5183 30.88C98.9316 30.6133 98.4516 30.2533 98.0783 29.8V35.52H95.9583V21.12ZM101.158 29.34C101.772 29.34 102.318 29.1933 102.798 28.9C103.278 28.6067 103.652 28.2133 103.918 27.72C104.198 27.2133 104.338 26.66 104.338 26.06C104.338 25.4467 104.198 24.8933 103.918 24.4C103.652 23.8933 103.278 23.5 102.798 23.22C102.318 22.9267 101.772 22.78 101.158 22.78C100.545 22.78 99.9983 22.9267 99.5183 23.22C99.0383 23.5 98.6583 23.8933 98.3783 24.4C98.1116 24.8933 97.9783 25.4467 97.9783 26.06C97.9783 26.66 98.1116 27.2133 98.3783 27.72C98.6583 28.2133 99.0383 28.6067 99.5183 28.9C99.9983 29.1933 100.545 29.34 101.158 29.34ZM111.76 31.28C110.707 31.28 109.86 30.98 109.22 30.38C108.58 29.78 108.26 28.9333 108.26 27.84V21.12H110.38V27.2C110.38 27.88 110.573 28.4067 110.96 28.78C111.347 29.1533 111.867 29.34 112.52 29.34C113.253 29.34 113.867 29.0667 114.36 28.52C114.853 27.9733 115.1 27.2733 115.1 26.42V21.12H117.22V31H115.1V29.64C114.74 30.1333 114.26 30.5333 113.66 30.84C113.06 31.1333 112.427 31.28 111.76 31.28ZM122.589 31.28C121.296 31.28 120.156 30.9533 119.169 30.3L119.669 28.3H119.789C120.696 28.9933 121.609 29.34 122.529 29.34C123.023 29.34 123.416 29.24 123.709 29.04C124.003 28.8267 124.149 28.54 124.149 28.18C124.149 27.8067 123.989 27.5133 123.669 27.3C123.363 27.0867 122.816 26.8467 122.029 26.58C120.309 25.9933 119.449 25.0333 119.449 23.7C119.449 23.1533 119.596 22.6667 119.889 22.24C120.183 21.8 120.589 21.46 121.109 21.22C121.643 20.9667 122.243 20.84 122.909 20.84C123.909 20.84 124.789 21.0733 125.549 21.54L125.629 23.58H125.489C125.063 23.2733 124.643 23.0467 124.229 22.9C123.829 22.74 123.383 22.66 122.889 22.66C122.463 22.66 122.109 22.7467 121.829 22.92C121.563 23.08 121.429 23.3133 121.429 23.62C121.429 23.98 121.589 24.2733 121.909 24.5C122.229 24.7267 122.776 24.9733 123.549 25.24C124.456 25.5467 125.136 25.9133 125.589 26.34C126.043 26.7533 126.269 27.3533 126.269 28.14C126.269 28.7667 126.103 29.32 125.769 29.8C125.436 30.28 124.989 30.6467 124.429 30.9C123.869 31.1533 123.256 31.28 122.589 31.28ZM134.946 31.28C133.586 31.28 132.346 30.9667 131.226 30.34C130.12 29.7133 129.246 28.8467 128.606 27.74C127.966 26.6333 127.646 25.3867 127.646 24C127.646 22.6133 127.966 21.3667 128.606 20.26C129.26 19.1533 130.14 18.2867 131.246 17.66C132.366 17.0333 133.606 16.72 134.966 16.72C135.806 16.72 136.54 16.8133 137.166 17C137.806 17.1867 138.426 17.4667 139.026 17.84L139.186 20.28H138.906C138.306 19.7867 137.693 19.4133 137.066 19.16C136.44 18.8933 135.746 18.76 134.986 18.76C134.013 18.76 133.146 18.98 132.386 19.42C131.626 19.8467 131.033 20.46 130.606 21.26C130.18 22.0467 129.966 22.96 129.966 24C129.966 25.0267 130.18 25.94 130.606 26.74C131.033 27.5267 131.626 28.14 132.386 28.58C133.16 29.02 134.026 29.24 134.986 29.24C135.733 29.24 136.42 29.1133 137.046 28.86C137.673 28.5933 138.293 28.2067 138.906 27.7H139.186L139.026 30.14C138.426 30.5133 137.8 30.8 137.146 31C136.506 31.1867 135.773 31.28 134.946 31.28ZM145.575 31.28C144.695 31.28 143.875 31.06 143.115 30.62C142.355 30.1667 141.741 29.54 141.275 28.74C140.821 27.94 140.595 27.0467 140.595 26.06C140.595 25.1133 140.815 24.24 141.255 23.44C141.708 22.64 142.321 22.0067 143.095 21.54C143.868 21.0733 144.721 20.84 145.655 20.84C146.348 20.84 146.975 20.9667 147.535 21.22C148.095 21.4733 148.541 21.7933 148.875 22.18V21.12H150.995V31H148.875V29.92C148.021 30.8267 146.921 31.28 145.575 31.28ZM145.855 29.34C146.481 29.34 147.028 29.1933 147.495 28.9C147.975 28.6067 148.341 28.2133 148.595 27.72C148.848 27.2133 148.975 26.66 148.975 26.06C148.975 25.46 148.848 24.9133 148.595 24.42C148.341 23.9133 147.975 23.5133 147.495 23.22C147.028 22.9267 146.481 22.78 145.855 22.78C145.228 22.78 144.675 22.9267 144.195 23.22C143.715 23.5133 143.348 23.9133 143.095 24.42C142.841 24.9133 142.715 25.46 142.715 26.06C142.715 26.66 142.841 27.2133 143.095 27.72C143.361 28.2133 143.728 28.6067 144.195 28.9C144.675 29.1933 145.228 29.34 145.855 29.34ZM153.439 21.12H155.559V22.32C155.879 21.84 156.279 21.4733 156.759 21.22C157.239 20.9667 157.732 20.84 158.239 20.84C158.852 20.84 159.372 20.9933 159.799 21.3L159.939 23.5H159.659C159.219 23.02 158.652 22.78 157.959 22.78C157.292 22.78 156.725 23.0067 156.259 23.46C155.792 23.9 155.559 24.5733 155.559 25.48V31H153.439V21.12ZM165.946 31.28C165.12 31.28 164.44 31.02 163.906 30.5C163.386 29.98 163.126 29.2333 163.126 28.26V22.96H161.346V21.12H163.126V19.36L165.246 18.38V21.12H167.986V22.96H165.246V28.22C165.246 28.6333 165.36 28.94 165.586 29.14C165.813 29.34 166.093 29.44 166.426 29.44C166.666 29.44 166.9 29.4 167.126 29.32C167.366 29.24 167.633 29.0867 167.926 28.86H168.166L168.006 30.78C167.62 30.98 167.286 31.1133 167.006 31.18C166.726 31.2467 166.373 31.28 165.946 31.28Z" fill="#124076"/>
</svg>
