<svg xmlns="http://www.w3.org/2000/svg" xmlns:xlink="http://www.w3.org/1999/xlink" width="500" zoomAndPan="magnify" viewBox="0 0 375 374.999991" height="500" preserveAspectRatio="xMidYMid meet" version="1.0"><defs><clipPath id="7cef6cf848"><path d="M 137.792969 137.792969 L 237.542969 137.792969 L 237.542969 237.542969 L 137.792969 237.542969 Z M 137.792969 137.792969 " clip-rule="nonzero"/></clipPath></defs><g clip-path="url(#7cef6cf848)"><path fill="#054a91" d="M 187.4375 137.710938 C 179.769531 137.710938 172.433594 139.414062 165.609375 142.753906 C 164.089844 143.492188 163.457031 145.335938 164.191406 146.875 C 164.929688 148.390625 166.777344 149.027344 168.3125 148.289062 C 174.296875 145.355469 180.714844 143.882812 187.4375 143.882812 C 211.4375 143.882812 230.953125 163.414062 230.953125 187.394531 C 230.953125 211.398438 211.417969 230.910156 187.4375 230.910156 C 163.457031 230.910156 143.921875 211.378906 143.921875 187.394531 C 143.921875 176.695312 147.878906 166.425781 154.90625 158.496094 L 165.074219 197.707031 C 166.367188 202.667969 170.835938 206.128906 175.957031 206.128906 L 204.921875 206.128906 C 209.144531 206.128906 212.730469 203.097656 213.449219 198.9375 L 215.109375 189.324219 C 215.394531 187.476562 214.863281 185.59375 213.652344 184.179688 C 212.441406 182.761719 210.660156 181.945312 208.792969 181.945312 L 183.234375 181.945312 C 182.085938 181.945312 181.082031 181.164062 180.796875 180.039062 L 178.378906 170.21875 C 178.378906 170.179688 178.355469 170.097656 178.417969 170.015625 C 178.5 169.910156 178.582031 169.910156 178.601562 169.910156 L 214.699219 169.910156 C 216.398438 169.910156 217.773438 168.539062 217.773438 166.835938 C 217.773438 165.136719 216.398438 163.761719 214.699219 163.761719 L 178.625 163.761719 C 176.636719 163.761719 174.8125 164.664062 173.582031 166.222656 C 172.351562 167.78125 171.941406 169.769531 172.414062 171.695312 L 174.832031 181.511719 C 175.792969 185.386719 179.238281 188.09375 183.234375 188.09375 L 208.980469 188.175781 C 209.039062 188.257812 209.039062 188.339844 209.039062 188.339844 L 207.402344 197.890625 C 207.195312 199.101562 206.152344 199.980469 204.921875 199.980469 L 175.957031 199.980469 C 173.640625 199.980469 171.613281 198.402344 171.039062 196.167969 L 160.113281 154.007812 C 158.578125 147.9375 154.128906 143.121094 148.207031 141.132812 L 143.0625 139.414062 C 141.441406 138.859375 139.699219 139.742188 139.167969 141.339844 C 138.632812 142.9375 139.496094 144.699219 141.09375 145.234375 L 146.238281 146.957031 C 148.921875 147.855469 151.15625 149.660156 152.613281 151.976562 C 143.164062 161.28125 137.773438 174.050781 137.773438 187.375 C 137.773438 214.757812 160.054688 237.039062 187.4375 237.039062 C 214.820312 237.039062 237.121094 214.78125 237.121094 187.394531 C 237.121094 159.992188 214.839844 137.710938 187.4375 137.710938 Z M 187.4375 137.710938 " fill-opacity="1" fill-rule="nonzero"/></g><path fill="#054a91" d="M 181.574219 214.183594 C 181.574219 214.488281 181.546875 214.785156 181.488281 215.082031 C 181.425781 215.375 181.339844 215.664062 181.226562 215.941406 C 181.109375 216.222656 180.96875 216.484375 180.800781 216.734375 C 180.632812 216.988281 180.441406 217.21875 180.230469 217.433594 C 180.015625 217.644531 179.785156 217.835938 179.535156 218.003906 C 179.285156 218.171875 179.019531 218.3125 178.742188 218.425781 C 178.460938 218.542969 178.175781 218.628906 177.878906 218.6875 C 177.582031 218.746094 177.285156 218.777344 176.984375 218.777344 C 176.683594 218.777344 176.382812 218.746094 176.085938 218.6875 C 175.792969 218.628906 175.503906 218.542969 175.226562 218.425781 C 174.949219 218.3125 174.683594 218.171875 174.433594 218.003906 C 174.183594 217.835938 173.949219 217.644531 173.738281 217.433594 C 173.523438 217.21875 173.332031 216.988281 173.164062 216.734375 C 173 216.484375 172.855469 216.222656 172.742188 215.941406 C 172.625 215.664062 172.539062 215.375 172.480469 215.082031 C 172.421875 214.785156 172.390625 214.488281 172.390625 214.183594 C 172.390625 213.882812 172.421875 213.585938 172.480469 213.289062 C 172.539062 212.992188 172.625 212.707031 172.742188 212.429688 C 172.855469 212.148438 173 211.886719 173.164062 211.632812 C 173.332031 211.382812 173.523438 211.152344 173.738281 210.9375 C 173.949219 210.726562 174.183594 210.535156 174.433594 210.367188 C 174.683594 210.199219 174.949219 210.058594 175.226562 209.945312 C 175.503906 209.828125 175.792969 209.742188 176.085938 209.683594 C 176.382812 209.625 176.683594 209.59375 176.984375 209.59375 C 177.285156 209.59375 177.582031 209.625 177.878906 209.683594 C 178.175781 209.742188 178.460938 209.828125 178.742188 209.945312 C 179.019531 210.058594 179.285156 210.199219 179.535156 210.367188 C 179.785156 210.535156 180.015625 210.726562 180.230469 210.9375 C 180.441406 211.152344 180.632812 211.382812 180.800781 211.632812 C 180.96875 211.886719 181.109375 212.148438 181.226562 212.429688 C 181.339844 212.707031 181.425781 212.992188 181.488281 213.289062 C 181.546875 213.585938 181.574219 213.882812 181.574219 214.183594 Z M 181.574219 214.183594 " fill-opacity="1" fill-rule="nonzero"/><path fill="#054a91" d="M 205.25 214.183594 C 205.25 214.488281 205.21875 214.785156 205.160156 215.082031 C 205.101562 215.375 205.015625 215.664062 204.898438 215.941406 C 204.785156 216.222656 204.640625 216.484375 204.476562 216.734375 C 204.308594 216.988281 204.117188 217.21875 203.902344 217.433594 C 203.691406 217.644531 203.457031 217.835938 203.207031 218.003906 C 202.957031 218.171875 202.691406 218.3125 202.414062 218.425781 C 202.136719 218.542969 201.847656 218.628906 201.554688 218.6875 C 201.257812 218.746094 200.957031 218.777344 200.65625 218.777344 C 200.355469 218.777344 200.058594 218.746094 199.761719 218.6875 C 199.464844 218.628906 199.179688 218.542969 198.898438 218.425781 C 198.621094 218.3125 198.355469 218.171875 198.105469 218.003906 C 197.855469 217.835938 197.625 217.644531 197.410156 217.433594 C 197.199219 217.21875 197.007812 216.988281 196.839844 216.734375 C 196.671875 216.484375 196.53125 216.222656 196.414062 215.941406 C 196.300781 215.664062 196.214844 215.375 196.152344 215.082031 C 196.09375 214.785156 196.066406 214.488281 196.066406 214.183594 C 196.066406 213.882812 196.09375 213.585938 196.152344 213.289062 C 196.214844 212.992188 196.300781 212.707031 196.414062 212.429688 C 196.53125 212.148438 196.671875 211.886719 196.839844 211.632812 C 197.007812 211.382812 197.199219 211.152344 197.410156 210.9375 C 197.625 210.726562 197.855469 210.535156 198.105469 210.367188 C 198.355469 210.199219 198.621094 210.058594 198.898438 209.945312 C 199.179688 209.828125 199.464844 209.742188 199.761719 209.683594 C 200.058594 209.625 200.355469 209.59375 200.65625 209.59375 C 200.957031 209.59375 201.257812 209.625 201.554688 209.683594 C 201.847656 209.742188 202.136719 209.828125 202.414062 209.945312 C 202.691406 210.058594 202.957031 210.199219 203.207031 210.367188 C 203.457031 210.535156 203.691406 210.726562 203.902344 210.9375 C 204.117188 211.152344 204.308594 211.382812 204.476562 211.632812 C 204.640625 211.886719 204.785156 212.148438 204.898438 212.429688 C 205.015625 212.707031 205.101562 212.992188 205.160156 213.289062 C 205.21875 213.585938 205.25 213.882812 205.25 214.183594 Z M 205.25 214.183594 " fill-opacity="1" fill-rule="nonzero"/></svg>