<svg xmlns="http://www.w3.org/2000/svg" xmlns:xlink="http://www.w3.org/1999/xlink" width="500" zoomAndPan="magnify" viewBox="0 0 375 374.999991" height="500" preserveAspectRatio="xMidYMid meet" version="1.0"><defs><g/></defs><g fill="#000000" fill-opacity="1"><g transform="translate(102.890799, 215.083049)"><g><path d="M 9.859375 0.4375 C 8.085938 0.4375 6.367188 0.21875 4.703125 -0.21875 C 3.046875 -0.65625 1.695312 -1.238281 0.65625 -1.96875 L 2.6875 -6.515625 C 3.65625 -5.867188 4.785156 -5.347656 6.078125 -4.953125 C 7.367188 -4.554688 8.640625 -4.359375 9.890625 -4.359375 C 12.253906 -4.359375 13.4375 -4.953125 13.4375 -6.140625 C 13.4375 -6.765625 13.097656 -7.226562 12.421875 -7.53125 C 11.753906 -7.832031 10.671875 -8.148438 9.171875 -8.484375 C 7.523438 -8.835938 6.148438 -9.21875 5.046875 -9.625 C 3.953125 -10.03125 3.007812 -10.675781 2.21875 -11.5625 C 1.425781 -12.457031 1.03125 -13.664062 1.03125 -15.1875 C 1.03125 -16.519531 1.394531 -17.71875 2.125 -18.78125 C 2.851562 -19.851562 3.9375 -20.703125 5.375 -21.328125 C 6.820312 -21.953125 8.597656 -22.265625 10.703125 -22.265625 C 12.128906 -22.265625 13.539062 -22.101562 14.9375 -21.78125 C 16.332031 -21.457031 17.5625 -20.984375 18.625 -20.359375 L 16.71875 -15.78125 C 14.632812 -16.90625 12.617188 -17.46875 10.671875 -17.46875 C 9.441406 -17.46875 8.546875 -17.285156 7.984375 -16.921875 C 7.421875 -16.554688 7.140625 -16.082031 7.140625 -15.5 C 7.140625 -14.914062 7.472656 -14.476562 8.140625 -14.1875 C 8.804688 -13.894531 9.878906 -13.59375 11.359375 -13.28125 C 13.015625 -12.925781 14.390625 -12.546875 15.484375 -12.140625 C 16.578125 -11.742188 17.519531 -11.101562 18.3125 -10.21875 C 19.113281 -9.332031 19.515625 -8.128906 19.515625 -6.609375 C 19.515625 -5.296875 19.148438 -4.109375 18.421875 -3.046875 C 17.703125 -1.992188 16.613281 -1.148438 15.15625 -0.515625 C 13.695312 0.117188 11.929688 0.4375 9.859375 0.4375 Z M 9.859375 0.4375 "/></g></g></g><g fill="#000000" fill-opacity="1"><g transform="translate(123.06545, 215.083049)"><g><path d="M 22.953125 -21.828125 L 22.953125 0 L 16.78125 0 L 16.78125 -8.515625 L 8.359375 -8.515625 L 8.359375 0 L 2.1875 0 L 2.1875 -21.828125 L 8.359375 -21.828125 L 8.359375 -13.625 L 16.78125 -13.625 L 16.78125 -21.828125 Z M 22.953125 -21.828125 "/></g></g></g><g fill="#000000" fill-opacity="1"><g transform="translate(148.19802, 215.083049)"><g><path d="M 13.1875 0.4375 C 10.882812 0.4375 8.8125 -0.0507812 6.96875 -1.03125 C 5.125 -2.007812 3.675781 -3.359375 2.625 -5.078125 C 1.582031 -6.804688 1.0625 -8.753906 1.0625 -10.921875 C 1.0625 -13.078125 1.582031 -15.019531 2.625 -16.75 C 3.675781 -18.476562 5.125 -19.828125 6.96875 -20.796875 C 8.8125 -21.773438 10.882812 -22.265625 13.1875 -22.265625 C 15.5 -22.265625 17.570312 -21.773438 19.40625 -20.796875 C 21.25 -19.828125 22.695312 -18.476562 23.75 -16.75 C 24.800781 -15.019531 25.328125 -13.078125 25.328125 -10.921875 C 25.328125 -8.753906 24.800781 -6.804688 23.75 -5.078125 C 22.695312 -3.359375 21.25 -2.007812 19.40625 -1.03125 C 17.570312 -0.0507812 15.5 0.4375 13.1875 0.4375 Z M 13.1875 -4.671875 C 14.289062 -4.671875 15.289062 -4.929688 16.1875 -5.453125 C 17.082031 -5.972656 17.789062 -6.707031 18.3125 -7.65625 C 18.832031 -8.601562 19.09375 -9.691406 19.09375 -10.921875 C 19.09375 -12.140625 18.832031 -13.222656 18.3125 -14.171875 C 17.789062 -15.117188 17.082031 -15.851562 16.1875 -16.375 C 15.289062 -16.894531 14.289062 -17.15625 13.1875 -17.15625 C 12.09375 -17.15625 11.097656 -16.894531 10.203125 -16.375 C 9.304688 -15.851562 8.597656 -15.117188 8.078125 -14.171875 C 7.554688 -13.222656 7.296875 -12.140625 7.296875 -10.921875 C 7.296875 -9.691406 7.554688 -8.601562 8.078125 -7.65625 C 8.597656 -6.707031 9.304688 -5.972656 10.203125 -5.453125 C 11.097656 -4.929688 12.09375 -4.671875 13.1875 -4.671875 Z M 13.1875 -4.671875 "/></g></g></g><g fill="#000000" fill-opacity="1"><g transform="translate(174.577873, 215.083049)"><g><path d="M 12.15625 -21.828125 C 14.132812 -21.828125 15.851562 -21.5 17.3125 -20.84375 C 18.769531 -20.1875 19.890625 -19.25 20.671875 -18.03125 C 21.460938 -16.820312 21.859375 -15.394531 21.859375 -13.75 C 21.859375 -12.113281 21.460938 -10.691406 20.671875 -9.484375 C 19.890625 -8.273438 18.769531 -7.34375 17.3125 -6.6875 C 15.851562 -6.03125 14.132812 -5.703125 12.15625 -5.703125 L 8.359375 -5.703125 L 8.359375 0 L 2.1875 0 L 2.1875 -21.828125 Z M 11.78125 -10.578125 C 13.050781 -10.578125 14.007812 -10.847656 14.65625 -11.390625 C 15.300781 -11.941406 15.625 -12.726562 15.625 -13.75 C 15.625 -14.769531 15.300781 -15.5625 14.65625 -16.125 C 14.007812 -16.6875 13.050781 -16.96875 11.78125 -16.96875 L 8.359375 -16.96875 L 8.359375 -10.578125 Z M 11.78125 -10.578125 "/></g></g></g><g fill="#054a91" fill-opacity="1"><g transform="translate(197.924831, 215.083049)"><g><path d="M 8.921875 -16.84375 C 11.367188 -16.84375 13.242188 -16.253906 14.546875 -15.078125 C 15.847656 -13.898438 16.5 -12.128906 16.5 -9.765625 L 16.5 0 L 12.8125 0 L 12.8125 -2.03125 C 12.332031 -1.300781 11.648438 -0.742188 10.765625 -0.359375 C 9.890625 0.0234375 8.828125 0.21875 7.578125 0.21875 C 6.328125 0.21875 5.234375 0.00390625 4.296875 -0.421875 C 3.367188 -0.847656 2.648438 -1.441406 2.140625 -2.203125 C 1.628906 -2.960938 1.375 -3.816406 1.375 -4.765625 C 1.375 -6.265625 1.925781 -7.46875 3.03125 -8.375 C 4.144531 -9.28125 5.898438 -9.734375 8.296875 -9.734375 L 12.59375 -9.734375 L 12.59375 -9.984375 C 12.59375 -11.140625 12.242188 -12.03125 11.546875 -12.65625 C 10.859375 -13.28125 9.828125 -13.59375 8.453125 -13.59375 C 7.515625 -13.59375 6.59375 -13.445312 5.6875 -13.15625 C 4.78125 -12.863281 4.019531 -12.457031 3.40625 -11.9375 L 1.875 -14.78125 C 2.75 -15.445312 3.796875 -15.957031 5.015625 -16.3125 C 6.242188 -16.664062 7.546875 -16.84375 8.921875 -16.84375 Z M 8.390625 -2.625 C 9.367188 -2.625 10.234375 -2.84375 10.984375 -3.28125 C 11.742188 -3.726562 12.28125 -4.367188 12.59375 -5.203125 L 12.59375 -7.140625 L 8.578125 -7.140625 C 6.328125 -7.140625 5.203125 -6.398438 5.203125 -4.921875 C 5.203125 -4.222656 5.484375 -3.664062 6.046875 -3.25 C 6.609375 -2.832031 7.390625 -2.625 8.390625 -2.625 Z M 8.390625 -2.625 "/></g></g></g><g fill="#054a91" fill-opacity="1"><g transform="translate(216.852221, 215.083049)"><g><path d="M 2.5625 -16.65625 L 6.453125 -16.65625 L 6.453125 0 L 2.5625 0 Z M 4.515625 -19.40625 C 3.804688 -19.40625 3.210938 -19.625 2.734375 -20.0625 C 2.265625 -20.507812 2.03125 -21.066406 2.03125 -21.734375 C 2.03125 -22.398438 2.265625 -22.957031 2.734375 -23.40625 C 3.210938 -23.851562 3.804688 -24.078125 4.515625 -24.078125 C 5.222656 -24.078125 5.816406 -23.863281 6.296875 -23.4375 C 6.773438 -23.007812 7.015625 -22.472656 7.015625 -21.828125 C 7.015625 -21.140625 6.78125 -20.5625 6.3125 -20.09375 C 5.84375 -19.632812 5.242188 -19.40625 4.515625 -19.40625 Z M 4.515625 -19.40625 "/></g></g></g><g fill="#054a91" fill-opacity="1"><g transform="translate(225.86377, 215.083049)"><g><path d="M 7.703125 0.21875 C 6.347656 0.21875 5.023438 0.0390625 3.734375 -0.3125 C 2.453125 -0.664062 1.425781 -1.113281 0.65625 -1.65625 L 2.15625 -4.609375 C 2.90625 -4.117188 3.800781 -3.722656 4.84375 -3.421875 C 5.894531 -3.117188 6.929688 -2.96875 7.953125 -2.96875 C 10.285156 -2.96875 11.453125 -3.578125 11.453125 -4.796875 C 11.453125 -5.378906 11.15625 -5.785156 10.5625 -6.015625 C 9.96875 -6.242188 9.015625 -6.460938 7.703125 -6.671875 C 6.328125 -6.878906 5.207031 -7.117188 4.34375 -7.390625 C 3.488281 -7.660156 2.742188 -8.132812 2.109375 -8.8125 C 1.472656 -9.488281 1.15625 -10.429688 1.15625 -11.640625 C 1.15625 -13.210938 1.8125 -14.472656 3.125 -15.421875 C 4.445312 -16.367188 6.234375 -16.84375 8.484375 -16.84375 C 9.628906 -16.84375 10.769531 -16.710938 11.90625 -16.453125 C 13.050781 -16.191406 13.988281 -15.84375 14.71875 -15.40625 L 13.21875 -12.4375 C 11.8125 -13.269531 10.222656 -13.6875 8.453125 -13.6875 C 7.304688 -13.6875 6.4375 -13.515625 5.84375 -13.171875 C 5.25 -12.828125 4.953125 -12.375 4.953125 -11.8125 C 4.953125 -11.195312 5.269531 -10.757812 5.90625 -10.5 C 6.539062 -10.238281 7.523438 -9.992188 8.859375 -9.765625 C 10.191406 -9.554688 11.28125 -9.316406 12.125 -9.046875 C 12.976562 -8.773438 13.710938 -8.316406 14.328125 -7.671875 C 14.941406 -7.023438 15.25 -6.109375 15.25 -4.921875 C 15.25 -3.367188 14.570312 -2.125 13.21875 -1.1875 C 11.875 -0.25 10.035156 0.21875 7.703125 0.21875 Z M 7.703125 0.21875 "/></g></g></g><g fill="#054a91" fill-opacity="1"><g transform="translate(241.922417, 215.083049)"><g><path d="M 2.5625 -23.140625 L 6.453125 -23.140625 L 6.453125 0 L 2.5625 0 Z M 2.5625 -23.140625 "/></g></g></g><g fill="#054a91" fill-opacity="1"><g transform="translate(250.933967, 215.083049)"><g><path d="M 18.21875 -8.234375 C 18.21875 -7.960938 18.195312 -7.578125 18.15625 -7.078125 L 5.078125 -7.078125 C 5.304688 -5.847656 5.90625 -4.875 6.875 -4.15625 C 7.84375 -3.445312 9.046875 -3.09375 10.484375 -3.09375 C 12.304688 -3.09375 13.8125 -3.691406 15 -4.890625 L 17.09375 -2.5 C 16.34375 -1.601562 15.394531 -0.925781 14.25 -0.46875 C 13.101562 -0.0078125 11.816406 0.21875 10.390625 0.21875 C 8.554688 0.21875 6.941406 -0.144531 5.546875 -0.875 C 4.160156 -1.601562 3.085938 -2.613281 2.328125 -3.90625 C 1.566406 -5.207031 1.1875 -6.679688 1.1875 -8.328125 C 1.1875 -9.953125 1.554688 -11.410156 2.296875 -12.703125 C 3.035156 -14.003906 4.054688 -15.019531 5.359375 -15.75 C 6.671875 -16.476562 8.148438 -16.84375 9.796875 -16.84375 C 11.410156 -16.84375 12.859375 -16.484375 14.140625 -15.765625 C 15.421875 -15.046875 16.421875 -14.035156 17.140625 -12.734375 C 17.859375 -11.441406 18.21875 -9.941406 18.21875 -8.234375 Z M 9.796875 -13.71875 C 8.546875 -13.71875 7.488281 -13.347656 6.625 -12.609375 C 5.757812 -11.878906 5.234375 -10.898438 5.046875 -9.671875 L 14.5 -9.671875 C 14.332031 -10.878906 13.820312 -11.851562 12.96875 -12.59375 C 12.125 -13.34375 11.066406 -13.71875 9.796875 -13.71875 Z M 9.796875 -13.71875 "/></g></g></g><g fill="#054a91" fill-opacity="1"><g transform="translate(270.329074, 215.083049)"><g><path d="M 18.15625 -16.65625 L 10.359375 1.34375 C 9.628906 3.144531 8.742188 4.414062 7.703125 5.15625 C 6.660156 5.894531 5.398438 6.265625 3.921875 6.265625 C 3.097656 6.265625 2.28125 6.128906 1.46875 5.859375 C 0.65625 5.585938 -0.0078125 5.210938 -0.53125 4.734375 L 1.03125 1.875 C 1.40625 2.226562 1.847656 2.507812 2.359375 2.71875 C 2.867188 2.925781 3.382812 3.03125 3.90625 3.03125 C 4.582031 3.03125 5.144531 2.851562 5.59375 2.5 C 6.039062 2.144531 6.453125 1.550781 6.828125 0.71875 L 7.109375 0.0625 L -0.15625 -16.65625 L 3.90625 -16.65625 L 9.140625 -4.328125 L 14.40625 -16.65625 Z M 18.15625 -16.65625 "/></g></g></g></svg>